<?xml version="1.0" encoding="UTF-8"?>
<svg version="1.1" xmlns="http://www.w3.org/2000/svg" width="275" height="110">
<path d="M0 0 C90.75 0 181.5 0 275 0 C275 36.3 275 72.6 275 110 C184.25 110 93.5 110 0 110 C0 73.7 0 37.4 0 0 Z " fill="#010101" transform="translate(0,0)"/>
<path d="M0 0 C3.33333333 0 6.66666667 0 10 0 C10.99 -0.04125 11.98 -0.0825 13 -0.125 C16 0 16 0 18 2 C18.27240673 5.01826653 18.08675125 7.96370622 18 11 C15.03 11 12.06 11 9 11 C8.67 9.35 8.34 7.7 8 6 C8.804375 5.71125 9.60875 5.4225 10.4375 5.125 C13.1326468 4.26737432 13.1326468 4.26737432 14 2 C13.01 2.495 13.01 2.495 12 3 C9.3276379 3.13415472 6.67749512 3.04318541 4 3 C4 5.64 4 8.28 4 11 C2.68 11 1.36 11 0 11 C0 7.37 0 3.74 0 0 Z " fill="#C4E500" transform="translate(114,38)"/>
<path d="M0 0 C1.32 0 2.64 0 4 0 C4 1.32 4 2.64 4 4 C4.78375 3.95875 5.5675 3.9175 6.375 3.875 C9 4 9 4 11 6 C11.25 9.5 11.25 9.5 11 13 C9 15 9 15 6.8359375 15.1953125 C4.55729167 15.13020833 2.27864583 15.06510417 0 15 C0 10.05 0 5.1 0 0 Z " fill="#C9E300" transform="translate(134,34)"/>
<path d="M0 0 C3.3 0 6.6 0 10 0 C10 0.99 10 1.98 10 3 C8.02 3 6.04 3 4 3 C4 3.99 4 4.98 4 6 C5.98 6 7.96 6 10 6 C10 6.99 10 7.98 10 9 C8.02 9 6.04 9 4 9 C4 10.98 4 12.96 4 15 C2.68 15 1.36 15 0 15 C0 10.05 0 5.1 0 0 Z " fill="#C1E400" transform="translate(91,34)"/>
<path d="M0 0 C5.75 -0.125 5.75 -0.125 8 1 C8 4.3 8 7.6 8 11 C5.03 11 2.06 11 -1 11 C-1.33 9.35 -1.66 7.7 -2 6 C-0.35 5.34 1.3 4.68 3 4 C1.68 3.67 0.36 3.34 -1 3 C-0.67 2.01 -0.34 1.02 0 0 Z " fill="#CAF000" transform="translate(104,38)"/>
<path d="M0 0 C3.3 0 6.6 0 10 0 C10 0.99 10 1.98 10 3 C8.02 3 6.04 3 4 3 C4 3.99 4 4.98 4 6 C5.98 6 7.96 6 10 6 C10 6.99 10 7.98 10 9 C7.69 9 5.38 9 3 9 C3 10.98 3 12.96 3 15 C2.01 15 1.02 15 0 15 C0 10.05 0 5.1 0 0 Z " fill="#E4E9E4" transform="translate(25,34)"/>
<path d="M0 0 C5.75 -0.125 5.75 -0.125 8 1 C8 4.3 8 7.6 8 11 C5.03 11 2.06 11 -1 11 C-1.33 9.35 -1.66 7.7 -2 6 C-0.02 5.01 1.96 4.02 4 3 C2.35 3 0.7 3 -1 3 C-0.67 2.01 -0.34 1.02 0 0 Z " fill="#C4CCD0" transform="translate(38,38)"/>
<path d="M0 0 C6.8359375 -0.1953125 6.8359375 -0.1953125 9 0 C11 2 11 2 11.1953125 4.1640625 C11.17210938 4.97617187 11.14890625 5.78828125 11.125 6.625 C11.10695313 7.44226562 11.08890625 8.25953125 11.0703125 9.1015625 C11.03550781 10.04128906 11.03550781 10.04128906 11 11 C9.68 11 8.36 11 7 11 C7 8.36 7 5.72 7 3 C5.68 3 4.36 3 3 3 C3 5.64 3 8.28 3 11 C2.01 11 1.02 11 0 11 C0 7.37 0 3.74 0 0 Z " fill="#E4CE9F" transform="translate(74,38)"/>
<path d="M0 0 C0.66 0 1.32 0 2 0 C2 4.62 2 9.24 2 14 C-4.93359375 14.09765625 -4.93359375 14.09765625 -7 14 C-8 13 -8 13 -8.09765625 10.93359375 C-8.08605469 10.10988281 -8.07445312 9.28617188 -8.0625 8.4375 C-8.05347656 7.61121094 -8.04445312 6.78492188 -8.03515625 5.93359375 C-8.02355469 5.29550781 -8.01195312 4.65742187 -8 4 C-6.68 3.67 -5.36 3.34 -4 3 C-4.33 5.64 -4.66 8.28 -5 11 C-3.68 11 -2.36 11 -1 11 C-1.33 9.02 -1.66 7.04 -2 5 C-1.34 5 -0.68 5 0 5 C0 3.35 0 1.7 0 0 Z " fill="#E2E2D8" transform="translate(64,35)"/>
<path d="M0 0 C1.32 0 2.64 0 4 0 C4 1.32 4 2.64 4 4 C4.66 4.33 5.32 4.66 6 5 C5.01 6.485 5.01 6.485 4 8 C4.32550502 9.66821323 4.65846063 11.33499557 5 13 C4.34 13.66 3.68 14.32 3 15 C2.01 15 1.02 15 0 15 C0 10.05 0 5.1 0 0 Z " fill="#C1E600" transform="translate(134,34)"/>
<path d="M0 0 C2 2 2 2 2.125 5.125 C2.08375 6.07375 2.0425 7.0225 2 8 C-1 8 -4 8 -7 8 C-7.625 5.625 -7.625 5.625 -8 3 C-5.40517871 0.40517871 -3.60116375 0.30009698 0 0 Z " fill="#2D323C" transform="translate(114,64)"/>
<path d="M0 0 C5.875 0.875 5.875 0.875 7 2 C7.1875 4.4375 7.1875 4.4375 7 7 C5 9 5 9 2.375 9.125 C1.59125 9.08375 0.8075 9.0425 0 9 C0 6.03 0 3.06 0 0 Z " fill="#505C61" transform="translate(121,63)"/>
<path d="M0 0 C2.31 0 4.62 0 7 0 C7 0.99 7 1.98 7 3 C6.01 3 5.02 3 4 3 C4 5.64 4 8.28 4 11 C2.68 11 1.36 11 0 11 C0 7.37 0 3.74 0 0 Z " fill="#DBE4E2" transform="translate(48,38)"/>
<path d="M0 0 C1.32 0 2.64 0 4 0 C4 4.95 4 9.9 4 15 C3.67 15 3.34 15 3 15 C3 10.38 3 5.76 3 1 C2.34 1 1.68 1 1 1 C1.020625 1.804375 1.04125 2.60875 1.0625 3.4375 C1 6 1 6 0 7 C-0.04063832 8.66617115 -0.042721 10.33388095 0 12 C-1.32 12 -2.64 12 -4 12 C-4 9.69 -4 7.38 -4 5 C-3.01 4.67 -2.02 4.34 -1 4 C-0.26676204 1.98491642 -0.26676204 1.98491642 0 0 Z " fill="#D1BE7B" transform="translate(63,34)"/>
<path d="M0 0 C2.0625 0.4375 2.0625 0.4375 4 1 C4 3.64 4 6.28 4 9 C2.68 9.33 1.36 9.66 0 10 C0 9.01 0 8.02 0 7 C-0.66 6.67 -1.32 6.34 -2 6 C-1.125 1.125 -1.125 1.125 0 0 Z " fill="#313B4B" transform="translate(147,65)"/>
<path d="M0 0 C0.66 0 1.32 0 2 0 C2 2.97 2 5.94 2 9 C0.33388095 9.042721 -1.33382885 9.04063832 -3 9 C-4 8 -4 8 -4.0625 5.4375 C-4.041875 4.633125 -4.02125 3.82875 -4 3 C-2.68 2.67 -1.36 2.34 0 2 C0 1.34 0 0.68 0 0 Z " fill="#343C46" transform="translate(96,63)"/>
<path d="M0 0 C5.75 -0.125 5.75 -0.125 8 1 C8 4.3 8 7.6 8 11 C7.34 11 6.68 11 6 11 C6 9.68 6 8.36 6 7 C4.05990478 5.29467677 4.05990478 5.29467677 2 4 C2 3.67 2 3.34 2 3 C1.01 3 0.02 3 -1 3 C-0.67 2.01 -0.34 1.02 0 0 Z " fill="#EFF2EB" transform="translate(38,38)"/>
<path d="M0 0 C2.0625 0.4375 2.0625 0.4375 4 1 C3.67 2.32 3.34 3.64 3 5 C3.66 5 4.32 5 5 5 C5 6.32 5 7.64 5 9 C3.02 9 1.04 9 -1 9 C-1.09765625 2.84765625 -1.09765625 2.84765625 -1 1 C-0.67 0.67 -0.34 0.34 0 0 Z " fill="#3E4550" transform="translate(63,63)"/>
<path d="M0 0 C0.66 0 1.32 0 2 0 C2 4.62 2 9.24 2 14 C0.68 13.34 -0.64 12.68 -2 12 C-2 9.69 -2 7.38 -2 5 C-1.34 5 -0.68 5 0 5 C0 3.35 0 1.7 0 0 Z " fill="#F4FBFF" transform="translate(64,35)"/>
<path d="M0 0 C1.65 0 3.3 0 5 0 C5.33 1.65 5.66 3.3 6 5 C4.35 5.33 2.7 5.66 1 6 C0.67 6.99 0.34 7.98 0 9 C0 6.03 0 3.06 0 0 Z " fill="#3A4349" transform="translate(73,63)"/>
<path d="M0 0 C2.0625 0.4375 2.0625 0.4375 4 1 C5.125 4.75 5.125 4.75 4 7 C2.35 6.67 0.7 6.34 -1 6 C-1.042721 4.33388095 -1.04063832 2.66617115 -1 1 C-0.67 0.67 -0.34 0.34 0 0 Z " fill="#32353A" transform="translate(86,65)"/>
<path d="M0 0 C0.99 0 1.98 0 3 0 C3 3.63 3 7.26 3 11 C2.01 11 1.02 11 0 11 C0 7.37 0 3.74 0 0 Z " fill="#DDF100" transform="translate(147,38)"/>
<path d="M0 0 C0.99 0 1.98 0 3 0 C3 3.63 3 7.26 3 11 C2.01 11 1.02 11 0 11 C0 7.37 0 3.74 0 0 Z " fill="#FFF1DE" transform="translate(69,38)"/>
<path d="M0 0 C2.125 0.9375 2.125 0.9375 4 2 C3.67 3.65 3.34 5.3 3 7 C1.35 6.67 -0.3 6.34 -2 6 C-2 4.35 -2 2.7 -2 1 C-1.34 0.67 -0.68 0.34 0 0 Z " fill="#3A414A" transform="translate(162,65)"/>
<path d="M0 0 C0.66 0 1.32 0 2 0 C2 0.66 2 1.32 2 2 C2.66 2.33 3.32 2.66 4 3 C3.67 5.64 3.34 8.28 3 11 C2.01 11 1.02 11 0 11 C0 7.37 0 3.74 0 0 Z " fill="#E8F9FB" transform="translate(74,38)"/>
<path d="M0 0 C1.32 0.33 2.64 0.66 4 1 C4 2.65 4 4.3 4 6 C2.68 6.33 1.36 6.66 0 7 C0 4.69 0 2.38 0 0 Z " fill="#0B0206" transform="translate(122,64)"/>
<path d="M0 0 C1.32 0.66 2.64 1.32 4 2 C4 2.66 4 3.32 4 4 C2.68 4.33 1.36 4.66 0 5 C0.99 5.66 1.98 6.32 3 7 C1.35 6.67 -0.3 6.34 -2 6 C-1.125 1.125 -1.125 1.125 0 0 Z " fill="#434E5B" transform="translate(131,65)"/>
<path d="M0 0 C-0.33 1.65 -0.66 3.3 -1 5 C-2.65 5 -4.3 5 -6 5 C-5.625 3.0625 -5.625 3.0625 -5 1 C-3 0 -3 0 0 0 Z " fill="#93B100" transform="translate(129,44)"/>
<path d="M0 0 C0.99 0 1.98 0 3 0 C3 2.64 3 5.28 3 8 C2.01 8 1.02 8 0 8 C0 5.36 0 2.72 0 0 Z " fill="#E8F9FE" transform="translate(81,41)"/>
<path d="M0 0 C1.65 0 3.3 0 5 0 C5 1.32 5 2.64 5 4 C4.01 4 3.02 4 2 4 C1.67 3.34 1.34 2.68 1 2 C0.01 3.485 0.01 3.485 -1 5 C-0.67 3.35 -0.34 1.7 0 0 Z " fill="#7AA000" transform="translate(103,43)"/>
<path d="M0 0 C0.66 0.33 1.32 0.66 2 1 C1.01 3.97 0.02 6.94 -1 10 C-1.33 10 -1.66 10 -2 10 C-2 7.03 -2 4.06 -2 1 C-1.34 0.67 -0.68 0.34 0 0 Z " fill="#DEF0F8" transform="translate(58,38)"/>
<path d="M0 0 C1.98 0.495 1.98 0.495 4 1 C3.67 2.32 3.34 3.64 3 5 C1.68 4.67 0.36 4.34 -1 4 C-0.67 2.68 -0.34 1.36 0 0 Z " fill="#192300" transform="translate(138,41)"/>
<path d="M0 0 C1.32 0 2.64 0 4 0 C4 1.65 4 3.3 4 5 C2.68 5 1.36 5 0 5 C0 3.35 0 1.7 0 0 Z " fill="#1D131A" transform="translate(59,41)"/>
<path d="M0 0 C3.125 -0.1875 3.125 -0.1875 6 0 C5.67 1.65 5.34 3.3 5 5 C4.34 4.67 3.68 4.34 3 4 C3.33 3.34 3.66 2.68 4 2 C2.02 2.33 0.04 2.66 -2 3 C-1.34 2.01 -0.68 1.02 0 0 Z " fill="#C5EE00" transform="translate(124,38)"/>
<path d="M0 0 C1.32 0 2.64 0 4 0 C4 0.66 4 1.32 4 2 C3.34 2 2.68 2 2 2 C2 3.65 2 5.3 2 7 C1.34 7 0.68 7 0 7 C0 4.69 0 2.38 0 0 Z " fill="#2E394A" transform="translate(80,65)"/>
</svg>
